<mxfile host="app.diagrams.net" modified="2024-03-21T17:13:25.438Z" agent="Mozilla/5.0 (Windows NT 10.0; Win64; x64) AppleWebKit/537.36 (KHTML, like Gecko) Chrome/122.0.0.0 Safari/537.36 Edg/122.0.0.0" etag="QR97gOLr-IQ82o9ryppK" version="24.0.7" type="device">
  <diagram name="Страница — 1" id="DPWF0LD742qlfaesjt3D">
    <mxGraphModel dx="1426" dy="797" grid="1" gridSize="10" guides="1" tooltips="1" connect="1" arrows="1" fold="1" page="1" pageScale="1" pageWidth="1169" pageHeight="827" math="0" shadow="0">
      <root>
        <mxCell id="0" />
        <mxCell id="1" parent="0" />
        <mxCell id="ElXPz8UAfmo4ccdZy1Mm-16" value="Owner&lt;div&gt;&lt;br/&gt;&lt;/div&gt;" style="shape=umlActor;verticalLabelPosition=bottom;verticalAlign=top;html=1;outlineConnect=0;" parent="1" vertex="1">
          <mxGeometry x="1070" y="540" width="40" height="70" as="geometry" />
        </mxCell>
        <mxCell id="ElXPz8UAfmo4ccdZy1Mm-19" value="" style="endArrow=none;html=1;rounded=0;" parent="1" source="ElXPz8UAfmo4ccdZy1Mm-23" target="ElXPz8UAfmo4ccdZy1Mm-16" edge="1">
          <mxGeometry width="50" height="50" relative="1" as="geometry">
            <mxPoint x="999.9368908175234" y="651.4167054489008" as="sourcePoint" />
            <mxPoint x="870" y="550" as="targetPoint" />
          </mxGeometry>
        </mxCell>
        <mxCell id="ElXPz8UAfmo4ccdZy1Mm-35" value="Super&lt;br&gt;Manager" style="shape=umlActor;verticalLabelPosition=bottom;verticalAlign=top;html=1;outlineConnect=0;" parent="1" vertex="1">
          <mxGeometry x="1070" y="390" width="40" height="70" as="geometry" />
        </mxCell>
        <mxCell id="ElXPz8UAfmo4ccdZy1Mm-37" value="" style="endArrow=block;html=1;rounded=0;exitX=0.5;exitY=0;exitDx=0;exitDy=0;exitPerimeter=0;endFill=0;" parent="1" source="ElXPz8UAfmo4ccdZy1Mm-16" edge="1">
          <mxGeometry width="50" height="50" relative="1" as="geometry">
            <mxPoint x="1050" y="510" as="sourcePoint" />
            <mxPoint x="1090" y="500" as="targetPoint" />
          </mxGeometry>
        </mxCell>
        <mxCell id="ElXPz8UAfmo4ccdZy1Mm-38" value="Manager" style="shape=umlActor;verticalLabelPosition=bottom;verticalAlign=top;html=1;outlineConnect=0;" parent="1" vertex="1">
          <mxGeometry x="1070" y="253" width="40" height="70" as="geometry" />
        </mxCell>
        <mxCell id="ElXPz8UAfmo4ccdZy1Mm-39" value="" style="endArrow=block;html=1;rounded=0;exitX=0.5;exitY=0;exitDx=0;exitDy=0;exitPerimeter=0;endFill=0;" parent="1" edge="1">
          <mxGeometry width="50" height="50" relative="1" as="geometry">
            <mxPoint x="1089.76" y="390" as="sourcePoint" />
            <mxPoint x="1089.76" y="350" as="targetPoint" />
          </mxGeometry>
        </mxCell>
        <mxCell id="ElXPz8UAfmo4ccdZy1Mm-40" value="Raid Leader" style="shape=umlActor;verticalLabelPosition=bottom;verticalAlign=top;html=1;outlineConnect=0;" parent="1" vertex="1">
          <mxGeometry x="1880" y="379" width="40" height="70" as="geometry" />
        </mxCell>
        <mxCell id="ElXPz8UAfmo4ccdZy1Mm-45" value="" style="endArrow=none;html=1;rounded=0;" parent="1" source="ElXPz8UAfmo4ccdZy1Mm-35" target="ElXPz8UAfmo4ccdZy1Mm-41" edge="1">
          <mxGeometry width="50" height="50" relative="1" as="geometry">
            <mxPoint x="1150" y="620" as="sourcePoint" />
            <mxPoint x="1200" y="570" as="targetPoint" />
          </mxGeometry>
        </mxCell>
        <mxCell id="ElXPz8UAfmo4ccdZy1Mm-46" value="" style="endArrow=none;html=1;rounded=0;" parent="1" source="ElXPz8UAfmo4ccdZy1Mm-35" target="ElXPz8UAfmo4ccdZy1Mm-42" edge="1">
          <mxGeometry width="50" height="50" relative="1" as="geometry">
            <mxPoint x="1116" y="470" as="sourcePoint" />
            <mxPoint x="1204" y="661" as="targetPoint" />
          </mxGeometry>
        </mxCell>
        <mxCell id="ElXPz8UAfmo4ccdZy1Mm-47" value="" style="endArrow=none;html=1;rounded=0;entryX=0.008;entryY=0.413;entryDx=0;entryDy=0;entryPerimeter=0;" parent="1" source="ElXPz8UAfmo4ccdZy1Mm-35" target="ElXPz8UAfmo4ccdZy1Mm-43" edge="1">
          <mxGeometry width="50" height="50" relative="1" as="geometry">
            <mxPoint x="1140" y="530" as="sourcePoint" />
            <mxPoint x="1190" y="480" as="targetPoint" />
          </mxGeometry>
        </mxCell>
        <mxCell id="ElXPz8UAfmo4ccdZy1Mm-48" value="" style="endArrow=none;html=1;rounded=0;" parent="1" source="ElXPz8UAfmo4ccdZy1Mm-35" target="ElXPz8UAfmo4ccdZy1Mm-44" edge="1">
          <mxGeometry width="50" height="50" relative="1" as="geometry">
            <mxPoint x="1140" y="530" as="sourcePoint" />
            <mxPoint x="1190" y="480" as="targetPoint" />
          </mxGeometry>
        </mxCell>
        <mxCell id="ElXPz8UAfmo4ccdZy1Mm-70" value="" style="endArrow=none;html=1;rounded=0;" parent="1" source="ElXPz8UAfmo4ccdZy1Mm-67" target="ElXPz8UAfmo4ccdZy1Mm-38" edge="1">
          <mxGeometry width="50" height="50" relative="1" as="geometry">
            <mxPoint x="1040" y="330" as="sourcePoint" />
            <mxPoint x="1090" y="280" as="targetPoint" />
          </mxGeometry>
        </mxCell>
        <mxCell id="ElXPz8UAfmo4ccdZy1Mm-71" value="" style="endArrow=none;html=1;rounded=0;" parent="1" source="ElXPz8UAfmo4ccdZy1Mm-67" target="ElXPz8UAfmo4ccdZy1Mm-40" edge="1">
          <mxGeometry width="50" height="50" relative="1" as="geometry">
            <mxPoint x="977" y="270" as="sourcePoint" />
            <mxPoint x="1080" y="294" as="targetPoint" />
          </mxGeometry>
        </mxCell>
        <mxCell id="ElXPz8UAfmo4ccdZy1Mm-73" value="" style="endArrow=none;html=1;rounded=0;" parent="1" source="ElXPz8UAfmo4ccdZy1Mm-72" target="ElXPz8UAfmo4ccdZy1Mm-38" edge="1">
          <mxGeometry width="50" height="50" relative="1" as="geometry">
            <mxPoint x="990" y="290" as="sourcePoint" />
            <mxPoint x="1040" y="240" as="targetPoint" />
          </mxGeometry>
        </mxCell>
        <mxCell id="ElXPz8UAfmo4ccdZy1Mm-74" value="" style="endArrow=none;html=1;rounded=0;" parent="1" source="ElXPz8UAfmo4ccdZy1Mm-72" target="ElXPz8UAfmo4ccdZy1Mm-40" edge="1">
          <mxGeometry width="50" height="50" relative="1" as="geometry">
            <mxPoint x="980" y="289" as="sourcePoint" />
            <mxPoint x="1080" y="297" as="targetPoint" />
          </mxGeometry>
        </mxCell>
        <mxCell id="ElXPz8UAfmo4ccdZy1Mm-77" value="" style="endArrow=none;html=1;rounded=0;" parent="1" source="ElXPz8UAfmo4ccdZy1Mm-38" target="ElXPz8UAfmo4ccdZy1Mm-75" edge="1">
          <mxGeometry width="50" height="50" relative="1" as="geometry">
            <mxPoint x="1150" y="380" as="sourcePoint" />
            <mxPoint x="1200" y="330" as="targetPoint" />
          </mxGeometry>
        </mxCell>
        <mxCell id="ElXPz8UAfmo4ccdZy1Mm-78" value="" style="endArrow=none;html=1;rounded=0;" parent="1" source="ElXPz8UAfmo4ccdZy1Mm-38" target="ElXPz8UAfmo4ccdZy1Mm-76" edge="1">
          <mxGeometry width="50" height="50" relative="1" as="geometry">
            <mxPoint x="1170" y="310" as="sourcePoint" />
            <mxPoint x="1220" y="260" as="targetPoint" />
          </mxGeometry>
        </mxCell>
        <mxCell id="ElXPz8UAfmo4ccdZy1Mm-92" value="" style="endArrow=none;html=1;rounded=0;" parent="1" source="ElXPz8UAfmo4ccdZy1Mm-38" target="ElXPz8UAfmo4ccdZy1Mm-91" edge="1">
          <mxGeometry width="50" height="50" relative="1" as="geometry">
            <mxPoint x="1120" y="240" as="sourcePoint" />
            <mxPoint x="1170" y="190" as="targetPoint" />
          </mxGeometry>
        </mxCell>
        <mxCell id="ElXPz8UAfmo4ccdZy1Mm-109" value="" style="endArrow=none;html=1;rounded=0;" parent="1" source="ElXPz8UAfmo4ccdZy1Mm-40" target="ElXPz8UAfmo4ccdZy1Mm-107" edge="1">
          <mxGeometry width="50" height="50" relative="1" as="geometry">
            <mxPoint x="960" y="30" as="sourcePoint" />
            <mxPoint x="1010" y="-20" as="targetPoint" />
          </mxGeometry>
        </mxCell>
        <mxCell id="ElXPz8UAfmo4ccdZy1Mm-110" value="" style="endArrow=none;html=1;rounded=0;" parent="1" source="ElXPz8UAfmo4ccdZy1Mm-40" target="ElXPz8UAfmo4ccdZy1Mm-108" edge="1">
          <mxGeometry width="50" height="50" relative="1" as="geometry">
            <mxPoint x="960" y="30" as="sourcePoint" />
            <mxPoint x="1010" y="-20" as="targetPoint" />
          </mxGeometry>
        </mxCell>
        <mxCell id="g8uEi7BTS6u_bBuACscH-1" value="CustomCRM" style="swimlane;whiteSpace=wrap;html=1;" parent="1" vertex="1">
          <mxGeometry x="1200" y="56" width="660" height="771" as="geometry">
            <mxRectangle x="1200" y="56" width="110" height="30" as="alternateBounds" />
          </mxGeometry>
        </mxCell>
        <mxCell id="ElXPz8UAfmo4ccdZy1Mm-41" value="Create raid" style="ellipse;whiteSpace=wrap;html=1;" parent="g8uEi7BTS6u_bBuACscH-1" vertex="1">
          <mxGeometry x="110" y="421" width="120" height="80" as="geometry" />
        </mxCell>
        <mxCell id="ElXPz8UAfmo4ccdZy1Mm-49" value="Add raid to &lt;br&gt;schedule" style="ellipse;whiteSpace=wrap;html=1;" parent="g8uEi7BTS6u_bBuACscH-1" vertex="1">
          <mxGeometry x="280" y="431" width="120" height="80" as="geometry" />
        </mxCell>
        <mxCell id="ElXPz8UAfmo4ccdZy1Mm-50" value="" style="endArrow=classic;html=1;rounded=0;dashed=1;" parent="g8uEi7BTS6u_bBuACscH-1" source="ElXPz8UAfmo4ccdZy1Mm-41" target="ElXPz8UAfmo4ccdZy1Mm-49" edge="1">
          <mxGeometry width="50" height="50" relative="1" as="geometry">
            <mxPoint x="109" y="670.92" as="sourcePoint" />
            <mxPoint x="104.60178993308409" y="709.997820579937" as="targetPoint" />
          </mxGeometry>
        </mxCell>
        <mxCell id="ElXPz8UAfmo4ccdZy1Mm-51" value="&quot;include&quot;" style="edgeLabel;html=1;align=center;verticalAlign=middle;resizable=0;points=[];fontStyle=1" parent="ElXPz8UAfmo4ccdZy1Mm-50" vertex="1" connectable="0">
          <mxGeometry x="0.2857" relative="1" as="geometry">
            <mxPoint x="-6" y="-15" as="offset" />
          </mxGeometry>
        </mxCell>
        <mxCell id="ElXPz8UAfmo4ccdZy1Mm-43" value="Create schedule" style="ellipse;whiteSpace=wrap;html=1;" parent="g8uEi7BTS6u_bBuACscH-1" vertex="1">
          <mxGeometry x="180" y="630" width="120" height="80" as="geometry" />
        </mxCell>
        <mxCell id="ElXPz8UAfmo4ccdZy1Mm-44" value="Edit schedule" style="ellipse;whiteSpace=wrap;html=1;" parent="g8uEi7BTS6u_bBuACscH-1" vertex="1">
          <mxGeometry x="140" y="540" width="120" height="80" as="geometry" />
        </mxCell>
        <mxCell id="ElXPz8UAfmo4ccdZy1Mm-42" value="Edit raid" style="ellipse;whiteSpace=wrap;html=1;" parent="g8uEi7BTS6u_bBuACscH-1" vertex="1">
          <mxGeometry x="10" y="325" width="120" height="80" as="geometry" />
        </mxCell>
        <mxCell id="ElXPz8UAfmo4ccdZy1Mm-91" value="Start raid" style="ellipse;whiteSpace=wrap;html=1;" parent="g8uEi7BTS6u_bBuACscH-1" vertex="1">
          <mxGeometry x="190" y="334" width="120" height="80" as="geometry" />
        </mxCell>
        <mxCell id="ElXPz8UAfmo4ccdZy1Mm-95" value="" style="endArrow=classic;html=1;rounded=0;dashed=1;" parent="g8uEi7BTS6u_bBuACscH-1" source="GAXW2NXE74d8fE3NwSCc-1" target="ElXPz8UAfmo4ccdZy1Mm-91" edge="1">
          <mxGeometry width="50" height="50" relative="1" as="geometry">
            <mxPoint x="120" y="10" as="sourcePoint" />
            <mxPoint x="170" y="-40" as="targetPoint" />
          </mxGeometry>
        </mxCell>
        <mxCell id="ElXPz8UAfmo4ccdZy1Mm-96" value="&quot;extend&quot;" style="edgeLabel;html=1;align=center;verticalAlign=middle;resizable=0;points=[];fontStyle=1" parent="ElXPz8UAfmo4ccdZy1Mm-95" vertex="1" connectable="0">
          <mxGeometry x="-0.2435" y="1" relative="1" as="geometry">
            <mxPoint x="1" y="13" as="offset" />
          </mxGeometry>
        </mxCell>
        <mxCell id="ElXPz8UAfmo4ccdZy1Mm-67" value="Login&amp;amp;Logout" style="ellipse;whiteSpace=wrap;html=1;" parent="g8uEi7BTS6u_bBuACscH-1" vertex="1">
          <mxGeometry x="320" y="301" width="120" height="80" as="geometry" />
        </mxCell>
        <mxCell id="ElXPz8UAfmo4ccdZy1Mm-23" value="Create an orders report" style="ellipse;whiteSpace=wrap;html=1;" parent="g8uEi7BTS6u_bBuACscH-1" vertex="1">
          <mxGeometry x="40" y="620" width="120" height="80" as="geometry" />
        </mxCell>
        <mxCell id="ElXPz8UAfmo4ccdZy1Mm-75" value="Create order" style="ellipse;whiteSpace=wrap;html=1;" parent="g8uEi7BTS6u_bBuACscH-1" vertex="1">
          <mxGeometry x="70" y="161" width="120" height="80" as="geometry" />
        </mxCell>
        <mxCell id="ElXPz8UAfmo4ccdZy1Mm-79" value="Add order to raid" style="ellipse;whiteSpace=wrap;html=1;" parent="g8uEi7BTS6u_bBuACscH-1" vertex="1">
          <mxGeometry x="250" y="131" width="120" height="80" as="geometry" />
        </mxCell>
        <mxCell id="ElXPz8UAfmo4ccdZy1Mm-80" value="" style="endArrow=classic;html=1;rounded=0;dashed=1;" parent="g8uEi7BTS6u_bBuACscH-1" source="ElXPz8UAfmo4ccdZy1Mm-75" target="ElXPz8UAfmo4ccdZy1Mm-79" edge="1">
          <mxGeometry width="50" height="50" relative="1" as="geometry">
            <mxPoint x="180" y="327" as="sourcePoint" />
            <mxPoint x="280" y="323" as="targetPoint" />
          </mxGeometry>
        </mxCell>
        <mxCell id="ElXPz8UAfmo4ccdZy1Mm-81" value="&quot;include&quot;" style="edgeLabel;html=1;align=center;verticalAlign=middle;resizable=0;points=[];fontStyle=1" parent="ElXPz8UAfmo4ccdZy1Mm-80" vertex="1" connectable="0">
          <mxGeometry x="0.2857" relative="1" as="geometry">
            <mxPoint x="-8" y="-12" as="offset" />
          </mxGeometry>
        </mxCell>
        <mxCell id="ElXPz8UAfmo4ccdZy1Mm-76" value="Edit order" style="ellipse;whiteSpace=wrap;html=1;" parent="g8uEi7BTS6u_bBuACscH-1" vertex="1">
          <mxGeometry x="190" y="41" width="120" height="80" as="geometry" />
        </mxCell>
        <mxCell id="ElXPz8UAfmo4ccdZy1Mm-107" value="Create Attendance" style="ellipse;whiteSpace=wrap;html=1;" parent="g8uEi7BTS6u_bBuACscH-1" vertex="1">
          <mxGeometry x="420" y="41" width="120" height="80" as="geometry" />
        </mxCell>
        <mxCell id="ElXPz8UAfmo4ccdZy1Mm-108" value="&lt;br&gt;&lt;span style=&quot;color: rgb(0, 0, 0); font-family: Helvetica; font-size: 13px; font-style: normal; font-variant-ligatures: normal; font-variant-caps: normal; font-weight: 400; letter-spacing: normal; orphans: 2; text-align: center; text-indent: 0px; text-transform: none; widows: 2; word-spacing: 0px; -webkit-text-stroke-width: 0px; background-color: rgb(251, 251, 251); text-decoration-thickness: initial; text-decoration-style: initial; text-decoration-color: initial; float: none; display: inline !important;&quot;&gt;Edit Attendance&lt;/span&gt;&lt;div&gt;&lt;br&gt;&lt;/div&gt;" style="ellipse;whiteSpace=wrap;html=1;" parent="g8uEi7BTS6u_bBuACscH-1" vertex="1">
          <mxGeometry x="390" y="131" width="120" height="80" as="geometry" />
        </mxCell>
        <mxCell id="ElXPz8UAfmo4ccdZy1Mm-72" value="Watch schedule" style="ellipse;whiteSpace=wrap;html=1;" parent="g8uEi7BTS6u_bBuACscH-1" vertex="1">
          <mxGeometry x="370" y="221" width="120" height="80" as="geometry" />
        </mxCell>
        <mxCell id="E_ST6Sf4La0M_4zK39K5-1" value="Add raid leader to raid" style="ellipse;whiteSpace=wrap;html=1;" parent="g8uEi7BTS6u_bBuACscH-1" vertex="1">
          <mxGeometry x="460" y="484" width="120" height="80" as="geometry" />
        </mxCell>
        <mxCell id="E_ST6Sf4La0M_4zK39K5-2" value="" style="endArrow=classic;html=1;rounded=0;dashed=1;" parent="g8uEi7BTS6u_bBuACscH-1" source="ElXPz8UAfmo4ccdZy1Mm-49" target="E_ST6Sf4La0M_4zK39K5-1" edge="1">
          <mxGeometry width="50" height="50" relative="1" as="geometry">
            <mxPoint x="240" y="474" as="sourcePoint" />
            <mxPoint x="290" y="478" as="targetPoint" />
          </mxGeometry>
        </mxCell>
        <mxCell id="E_ST6Sf4La0M_4zK39K5-3" value="&quot;include&quot;" style="edgeLabel;html=1;align=center;verticalAlign=middle;resizable=0;points=[];fontStyle=1" parent="E_ST6Sf4La0M_4zK39K5-2" vertex="1" connectable="0">
          <mxGeometry x="0.2857" relative="1" as="geometry">
            <mxPoint x="-6" y="-15" as="offset" />
          </mxGeometry>
        </mxCell>
        <mxCell id="GAXW2NXE74d8fE3NwSCc-1" value="Edit raid" style="ellipse;whiteSpace=wrap;html=1;" vertex="1" parent="g8uEi7BTS6u_bBuACscH-1">
          <mxGeometry x="400" y="381" width="120" height="80" as="geometry" />
        </mxCell>
      </root>
    </mxGraphModel>
  </diagram>
</mxfile>
